<svg xmlns="http://www.w3.org/2000/svg" xmlns:xlink="http://www.w3.org/1999/xlink" viewBox="0 0 499 499" version="1.1" width="250px" height="250px">
    <!-- Generator: Sketch 52.6 (67491) - http://www.bohemiancoding.com/sketch -->
    <title>bmw</title>
    <desc>Created with Sketch.</desc>
    <g id="Page-1" stroke="none" stroke-width="1" fill="none" fill-rule="evenodd" fill-color-id="-1" stroke-color-id="-1" recolor-fill="true" recolor-stroke="true">
        <g id="bmw" fill="#000000" fill-color-id="0" stroke-color-id="-1" recolor-fill="true" recolor-stroke="true">
            <path d="M249.251,498.503 C182.675,498.503 120.083,472.575 73.005,425.498 C25.927,378.42 0,315.828 0,249.251 C0,111.813 111.813,0 249.251,0 C315.828,0 378.42,25.927 425.498,73.005 C472.575,120.083 498.503,182.675 498.503,249.251 C498.503,315.828 472.575,378.42 425.498,425.498 C378.419,472.575 315.828,498.503 249.251,498.503 Z M8.624,249.251 C8.624,313.524 33.654,373.95 79.103,419.4 C124.552,464.849 184.978,489.879 249.251,489.879 C381.933,489.879 489.878,381.934 489.878,249.251 C489.878,184.978 464.848,124.552 419.399,79.103 C373.951,33.653 313.524,8.624 249.251,8.624 C184.978,8.624 124.552,33.653 79.103,79.103 C33.654,124.552 8.624,184.979 8.624,249.251 Z" id="Combined-Shape" fill-color-id="0" stroke-color-id="-1" recolor-fill="true" recolor-stroke="true" fill="#000000"/>
            <path d="M249.251,18.541 C376.667,18.541 479.961,121.835 479.961,249.251 C479.961,376.667 376.667,479.962 249.251,479.962 C121.835,479.962 18.541,376.667 18.541,249.251 C18.541,121.835 121.835,18.541 249.251,18.541 Z M249.251,396.621 C330.641,396.621 396.621,330.641 396.621,249.251 C396.621,167.862 330.64,101.881 249.251,101.881 C167.862,101.881 101.881,167.862 101.881,249.251 C101.881,330.641 167.862,396.621 249.251,396.621 Z M140.952,108.643 C136.067,103.895 128.516,102.464 121.427,106.859 C122.781,103.35 122.228,99.769 121.509,97.793 C118.455,92.224 117.389,91.527 114.872,89.415 C106.724,82.578 98.149,88.415 92.016,95.724 L62.384,131.037 L108.965,170.124 L140.214,132.884 C147.354,124.375 148.458,115.939 140.952,108.643 Z M256.97,91.863 L272.967,49.462 L272.967,91.863 L285.125,91.863 L285.125,31.137 L266.858,31.137 L250.243,74.616 L250.415,74.616 L233.8,31.137 L215.534,31.137 L215.534,91.863 L227.691,91.863 L227.691,49.462 L243.689,91.863 L256.97,91.863 Z M420.43,117.127 L410.35,104.679 L373.892,120.331 L397.749,89.123 L388.353,77.52 L350.256,126.524 L361.391,140.164 L397.38,125.354 L397.51,125.515 L375.541,157.638 L386.568,171.365 L442.422,144.29 L433.026,132.687 L397.54,149.534 L420.43,117.127 Z" id="Combined-Shape" fill-color-id="0" stroke-color-id="-1" recolor-fill="true" recolor-stroke="true" fill="#000000"/>
            <path d="M111.362,249.251 L249.251,249.251 L249.251,111.362 C173.098,111.362 111.362,173.099 111.362,249.251 Z M249.251,249.251 L249.251,387.141 C325.404,387.141 387.14,325.405 387.14,249.251 L249.251,249.251 Z" id="Shape" fill-rule="nonzero" fill-color-id="0" stroke-color-id="-1" recolor-fill="true" recolor-stroke="true" fill="#000000"/>
            <path d="M98.491,104.464 C100.553,102.006 105.213,102.107 108.21,104.621 C111.505,107.386 111.513,111.306 109.3,113.942 L91.703,134.913 L80.693,125.674 L98.491,104.464 Z M129.8,129.203 L111.247,151.313 L99.613,141.551 L118.316,119.261 C120.428,116.744 125.137,116.011 128.313,118.677 C131.908,121.692 132.264,126.267 129.8,129.203 Z" id="Shape" fill-rule="nonzero" fill-color-id="0" stroke-color-id="-1" recolor-fill="true" recolor-stroke="true" fill="#000000"/>
        </g>
    </g>
</svg>