<svg width="232" height="232" viewBox="0 0 232 232" fill="none" xmlns="http://www.w3.org/2000/svg">
<path d="M232 116C232 180.065 180.065 232 116 232C51.935 232 0 180.065 0 116C0 51.935 51.935 0 116 0C180.065 0 232 51.935 232 116Z" fill="url(#paint0_linear_1309_190)"/>
<path fill-rule="evenodd" clip-rule="evenodd" d="M159.5 66.553L138.5 54.357C126.95 47.649 117.05 42.141 116.5 42.116C115.95 42.091 112.636 43.815 109.137 45.946L102.773 49.821L106.637 52.272C108.761 53.619 117.025 58.455 125 63.018C132.975 67.581 140.963 72.18 142.75 73.239L146 75.163V100.082C146 113.787 146.245 125 146.544 125C146.844 125 150.001 123.325 153.561 121.278L160.033 117.555L159.5 66.553ZM140 79.255L121.75 68.753C111.713 62.976 101.925 57.316 100 56.174L96.5 54.098L53.5 78.848L52.918 95.094L55.709 93.622C57.244 92.812 67.05 87.203 77.5 81.157C94.381 71.39 96.723 70.305 98.5 71.43C102.407 73.903 127.599 88.429 133.75 91.755L140 95.134V79.255ZM180 79.145L173.75 75.412C170.313 73.359 167.162 71.5 166.75 71.281C166.338 71.061 166 82.292 166 96.237V121.591L153.25 128.959C146.238 133.011 137.52 137.987 133.879 140.016C127.043 143.826 124.083 145.307 124.136 146.671C124.179 147.765 126.163 148.783 129.643 150.867L136.44 154.938L139.97 152.849C149.017 147.495 170.031 135.349 174.75 132.746L180 129.85V79.145ZM108.768 86.428C110.157 85.412 109.848 84.93 106.434 82.779C97.821 77.353 96.821 77.073 93.5 79.153C91.85 80.186 82.063 85.853 71.75 91.746L53 102.46V152.827L67 160.899L67.019 110.5L87.094 99.049C98.135 92.751 107.888 87.071 108.768 86.428ZM87.5 157.124L87.233 132.062C87.086 118.278 86.636 107.046 86.233 107.102C85.83 107.158 82.7 108.846 79.277 110.852L73.053 114.5L73 164.805L94.25 177.061C105.938 183.801 115.851 189.505 116.28 189.735C117.116 190.185 130.009 182.948 129.987 182.042C129.979 181.744 120.417 176.015 108.737 169.312L87.5 157.124ZM135.288 161.557C134.339 161.193 124.699 155.743 113.867 149.447C103.035 143.151 93.908 138 93.586 138C93.264 138 93.003 141.488 93.006 145.75C93.013 153.431 93.042 153.517 96.256 155.4C116.494 167.257 135.606 177.998 136.45 177.988C137.555 177.976 139.498 176.904 164.445 162.551L180 153.601V145.801C180 141.51 179.724 138 179.386 138C179.048 138 169.376 143.449 157.892 150.11C143.705 158.338 136.46 162.007 135.288 161.557Z" fill="white"/>
<defs>
<linearGradient id="paint0_linear_1309_190" x1="232" y1="0" x2="0" y2="232" gradientUnits="userSpaceOnUse">
<stop stop-color="#FB9D5A"/>
<stop offset="1" stop-color="#FD5D44"/>
</linearGradient>
</defs>
</svg>
