<svg xmlns="http://www.w3.org/2000/svg" xmlns:xlink="http://www.w3.org/1999/xlink" viewBox="0 0 360 144" version="1.1" width="250px" height="100px">
    <!-- Generator: Sketch 52.6 (67491) - http://www.bohemiancoding.com/sketch -->
    <title>ikea</title>
    <desc>Created with Sketch.</desc>
    <g id="Page-1" stroke="none" stroke-width="1" fill="none" fill-rule="evenodd" fill-color-id="-1" stroke-color-id="-1" recolor-fill="true" recolor-stroke="true">
        <g id="ikea" fill-color-id="-1" stroke-color-id="-1" recolor-fill="true" recolor-stroke="true">
            <polygon id="Path" fill="#0051BAFF" points="359.95 144 0 144 0 0 360 0 360 144" fill-color-id="2" stroke-color-id="-1" recolor-fill="true" recolor-stroke="true"/>
            <path d="M7.2,72 C7.2,107.399 79.618,136.8 180.025,136.8 C280.433,136.8 352.8,107.399 352.8,72 C352.8,36.601 280.382,7.2 180.025,7.2 C79.671,7.2 7.2,36.601 7.2,72 Z" id="Path" fill="#FFDA1AFF" fill-color-id="0" stroke-color-id="-1" recolor-fill="true" recolor-stroke="true"/>
            <path d="M167.213,93.618 C168.347,95.227 169.585,96.739 171.033,98.1 L132.074,98.1 C132.074,96.588 130.58,93.517 128.928,91.098 C127.276,88.682 118.351,75.434 118.351,75.434 L118.351,93.618 C118.351,95.126 118.351,96.588 119.125,98.1 L86.671,98.1 C87.445,96.588 87.445,95.126 87.445,93.618 L87.445,50.404 C87.445,48.892 87.445,47.43 86.671,45.922 L119.125,45.922 C118.351,47.43 118.351,48.892 118.351,50.404 L118.351,69.29 C118.351,69.29 128.723,56.096 131.095,53.022 C132.902,50.707 135.12,47.431 135.12,45.923 L168.967,45.923 C166.645,47.431 164.067,50.153 161.951,52.669 C160.093,54.887 149.567,67.429 149.567,67.429 C149.567,67.429 165.151,90.645 167.214,93.619 L167.213,93.618 Z M177.43,50.404 L177.43,93.618 C177.43,95.126 177.43,96.588 176.656,98.1 L239.296,98.1 L239.296,83.596 C237.748,84.348 236.25,84.348 234.702,84.348 L208.336,84.348 L208.336,77.501 L233.669,77.501 L233.669,66.521 L208.336,66.521 L208.336,59.62 L234.702,59.62 C236.25,59.62 237.748,59.62 239.296,60.326 L239.296,45.872 L176.656,45.872 C177.43,47.431 177.43,48.892 177.43,50.404 Z M326.081,93.618 C326.599,95.278 327.474,96.79 328.612,98.1 L294.66,98.1 C294.815,96.588 294.246,95.126 293.627,93.618 C293.627,93.618 293.112,92.408 292.389,90.644 L292.079,89.888 L272.524,89.888 L272.214,90.694 C272.214,90.694 271.645,92.156 271.13,93.668 C270.615,95.176 270.046,96.638 270.252,98.15 L243.475,98.15 C244.559,96.84 245.383,95.328 245.898,93.668 L261.947,50.454 C262.512,48.942 263.081,47.48 262.876,45.972 L308.124,45.972 C307.714,47.48 308.538,48.942 309.107,50.454 C310.446,53.726 324.947,90.695 326.081,93.618 Z M287.795,78.858 L283.05,66.773 C282.636,65.664 282.276,64.505 282.017,63.346 C281.812,64.505 281.502,65.664 281.088,66.773 C280.933,67.277 278.921,72.565 276.599,78.858 L287.795,78.858 Z M71.295,45.922 L36.001,45.922 C36.775,47.43 36.775,48.892 36.775,50.404 L36.775,93.618 C36.775,95.126 36.775,96.588 36.001,98.1 L71.295,98.1 C70.521,96.588 70.521,95.126 70.521,93.618 L70.521,50.404 C70.521,48.892 70.521,47.43 71.295,45.922 Z M315.245,50.051 C315.09,46.375 318.031,43.301 321.801,43.2 L322.265,43.2 C326.081,43.15 329.227,46.073 329.281,49.799 L329.281,50.051 C329.382,53.827 326.34,57.003 322.419,57.103 C318.549,57.204 315.298,54.23 315.194,50.403 C315.244,50.302 315.244,50.151 315.244,50.05 L315.245,50.051 Z M316.638,50.051 C316.638,53.071 319.169,55.541 322.265,55.541 C325.361,55.541 327.888,53.071 327.888,50.051 C327.888,47.027 325.361,44.561 322.265,44.561 C319.27,44.46 316.743,46.728 316.638,49.648 L316.638,50.051 Z M320.872,54.13 L319.634,54.13 L319.634,45.872 L322.78,45.872 C324.278,45.922 325.412,47.078 325.412,48.54 C325.412,49.548 324.843,50.455 323.914,50.959 L325.721,54.131 L324.328,54.131 L322.676,51.211 L320.872,51.211 L320.872,54.131 L320.872,54.13 Z M320.872,50.051 L322.575,50.051 C323.399,50.101 324.123,49.497 324.123,48.69 C324.123,47.884 323.554,47.178 322.73,47.178 L320.872,47.178 L320.872,50.051 Z" id="Shape" fill="#0051BAFF" fill-color-id="1" stroke-color-id="-1" recolor-fill="true" recolor-stroke="true"/>
        </g>
    </g>
</svg>