<?xml version="1.0" encoding="UTF-8" standalone="no"?>
<svg
   xmlns:dc="http://purl.org/dc/elements/1.1/"
   xmlns:cc="http://creativecommons.org/ns#"
   xmlns:rdf="http://www.w3.org/1999/02/22-rdf-syntax-ns#"
   xmlns:svg="http://www.w3.org/2000/svg"
   xmlns="http://www.w3.org/2000/svg"
   xmlns:xlink="http://www.w3.org/1999/xlink"
   xmlns:sodipodi="http://sodipodi.sourceforge.net/DTD/sodipodi-0.dtd"
   xmlns:inkscape="http://www.inkscape.org/namespaces/inkscape"
   viewBox="0 0 1000 190.77"
   version="1.1"
   id="svg2"
   height="138.119513466"
   width="724.010659253"
   inkscape:version="0.92.2 (5c3e80d, 2017-08-06)"
   sodipodi:docname="Michelin 2017 A Better Way Forward.svg">
  <sodipodi:namedview
     pagecolor="#ffffff"
     bordercolor="#666666"
     borderopacity="1"
     objecttolerance="10"
     gridtolerance="10"
     guidetolerance="10"
     inkscape:pageopacity="0"
     inkscape:pageshadow="2"
     inkscape:window-width="1360"
     inkscape:window-height="706"
     id="namedview5298"
     showgrid="false"
     inkscape:zoom="0.5"
     inkscape:cx="882.92503"
     inkscape:cy="138.14898"
     inkscape:window-x="-8"
     inkscape:window-y="-8"
     inkscape:window-maximized="1"
     inkscape:current-layer="svg2" />
  <defs
     id="defs4">
    <clipPath
       clipPathUnits="userSpaceOnUse"
       id="clipPath4157">
      <path
         d="M 0,792 H 612 V 0 H 0 Z"
         id="path4159"
         inkscape:connector-curvature="0" />
    </clipPath>
    <rect
       height="2267.7"
       width="8291.2998"
       y="-256.70001"
       id="SVGID_1_"
       x="0" />
    <rect
       height="2267.7"
       width="8291.2998"
       y="-256.70001"
       id="SVGID_3_"
       x="0" />
    <rect
       height="2267.7"
       width="8291.2998"
       y="-256.70001"
       id="SVGID_5_"
       x="0" />
    <rect
       height="2267.7"
       width="8291.2998"
       y="-256.70001"
       id="SVGID_7_"
       x="0" />
  </defs>
  <metadata
     id="metadata7">
    <rdf:RDF>
      <cc:Work
         rdf:about="">
        <dc:format>image/svg+xml</dc:format>
        <dc:type
           rdf:resource="http://purl.org/dc/dcmitype/StillImage" />
        <dc:title></dc:title>
      </cc:Work>
    </rdf:RDF>
  </metadata>
  <g
     id="g8020"
     transform="matrix(0.13439235,0,0,0.13439235,-57.143627,-22.6585)">
    <g
       id="g7906">
      <defs
         id="defs7897">
        <rect
           height="2267.7"
           width="8291.2998"
           y="-256.70001"
           id="rect7977"
           x="0" />
      </defs>
      <clipPath
         id="SVGID_2_">
        <use
           id="use7899"
           overflow="visible"
           xlink:href="#SVGID_1_"
           style="overflow:visible"
           x="0"
           y="0"
           width="100%"
           height="100%" />
      </clipPath>
      <path
         id="path7902"
         d="m 5087.3,1294.3 c -9.1,1.6 -80.4,15.3 -155.4,17.3 -133.7,3.7 -250.2,-49.8 -251.3,-146.3 -1.8,-167.2 167.3,-258.9 292,-284.4 55.9,-11.4 163.6,-24 270.8,2.4 l -62.3,149.4 c -17.9,-40.7 -63.9,-41.5 -82.7,-41.9 -45.5,-1 -83.2,11 -111,23.8 -63,28.9 -117.9,121.5 -28.7,157.2 49.4,19.8 112.5,4 178.1,-6.4 z"
         clip-path="url(#SVGID_2_)"
         inkscape:connector-curvature="0"
         style="fill:#27509b" />
      <path
         id="path7904"
         d="m 7693.9,877.1 -107.4,291.8 c 1.5,-29.4 7.3,-145.4 10.9,-212.3 1.5,-27.5 -4.5,-48.6 -17.6,-62.5 -16.1,-16.8 -37.2,-17 -37.4,-17 H 7303 l -156.4,425.2 h 173.7 l 111,-301.1 -13.1,301.1 h 291.3 l 156.6,-425.2 z"
         clip-path="url(#SVGID_2_)"
         inkscape:connector-curvature="0"
         style="fill:#27509b" />
    </g>
    <polygon
       id="polygon7908"
       points="6500.5,877.1 6343.9,1302.3 6746.2,1302.3 6798.2,1161.1 6596.4,1161.1 6700.9,877.1 "
       style="fill:#27509b" />
    <polygon
       id="polygon7910"
       points="6319.3,1035.7 6095.5,1035.7 6112.6,988.5 6347.6,988.5 6388.8,877.1 5959.5,877.1 5802.9,1302.3 6237.2,1302.3 6279.3,1187.6 6039.6,1187.6 6057.1,1140.4 6280.9,1140.4 "
       style="fill:#27509b" />
    <polygon
       id="polygon7912"
       points="5440,1158.3 5543.9,1158.3 5490.5,1302.3 5686.6,1302.3 5843.3,877.1 5647.5,877.1 5590.7,1030.3 5487.1,1030.3 5543.5,877.1 5347,877.1 5190.9,1302.3 5386.7,1302.3 "
       style="fill:#27509b" />
    <polygon
       id="polygon7914"
       points="4687.5,877.1 4481.6,877.1 4324.9,1302.3 4531,1302.3 "
       style="fill:#27509b" />
    <g
       id="g7924">
      <defs
         id="defs7917">
        <rect
           height="2267.7"
           width="8291.2998"
           y="-256.70001"
           id="rect7989"
           x="0" />
      </defs>
      <clipPath
         id="SVGID_4_">
        <use
           id="use7919"
           overflow="visible"
           xlink:href="#SVGID_3_"
           style="overflow:visible"
           x="0"
           y="0"
           width="100%"
           height="100%" />
      </clipPath>
      <path
         id="path7922"
         d="m 4208.9,1302.3 156.5,-425.2 h -290.9 l -150.4,228.4 c 0,0 9.6,-119.5 12,-148.3 1.8,-21.9 -0.9,-80.1 -54.3,-80.1 h -238.7 l -156.6,425.2 h 186.7 l 113.4,-307.5 -23.9,307.5 h 165.9 l 203.4,-302.2 -111,302.2 z"
         clip-path="url(#SVGID_4_)"
         inkscape:connector-curvature="0"
         style="fill:#27509b" />
    </g>
    <polygon
       id="polygon7926"
       points="7186.9,877.1 6981,877.1 6824.4,1302.3 7030.4,1302.3 "
       style="fill:#27509b" />
    <g
       id="g7952">
      <defs
         id="defs7929">
        <rect
           height="2267.7"
           width="8291.2998"
           y="-256.70001"
           id="rect7997"
           x="0" />
      </defs>
      <clipPath
         id="SVGID_6_">
        <use
           id="use7931"
           overflow="visible"
           xlink:href="#SVGID_5_"
           style="overflow:visible"
           x="0"
           y="0"
           width="100%"
           height="100%" />
      </clipPath>
      <path
         id="path7934"
         d="m 3766.8,532.2 -0.3,-0.9 c -8.6,-24.8 -31.8,-55.7 -70.1,-64.5 -14,-28.8 -42.6,-46.5 -75.7,-46.5 -7.8,0 -14,1 -17.8,1.8 -2.1,0.4 -10.3,2.4 -73.8,17.6 l -93.4,22.3 c 8.2,-23.5 7.1,-47.9 -3.3,-68.9 -13,-26.2 -39,-43.1 -66.2,-43.1 -9.7,0 -19,2.1 -27.6,6.2 l -0.8,0.4 c -3.6,1.8 -10.2,5 -176.6,113 -2.1,1.4 -4.2,2.9 -6.1,4.6 -80.9,70.5 -110.3,111.8 -117.3,122.6 -3.8,5.6 -10.4,16.2 -16.3,29.6 -4.3,-2.2 -8.6,-4.2 -12.9,-6.1 -33.5,-14.8 -68.3,-22.4 -103.5,-22.4 -63.8,0 -108.9,24.8 -120.9,32.3 -6.4,3.6 -30,17.7 -66.3,45.6 -14.3,11 -27.5,24 -39,38.7 -24.1,5.5 -43.9,12.1 -58.6,19.7 -18.5,9.5 -37,24.1 -56.8,39.6 l -1.2,0.9 c -3.4,2.6 -6.8,5.3 -10.2,8 -8.4,6.5 -29.9,24.6 -51.1,53.6 l -2.4,0.5 c -2.9,0.6 -29.5,6.5 -62.4,22.4 -8.2,4 -16.5,8.4 -24.5,13.3 -18.9,0.6 -48.6,3.9 -87.1,15.3 l -1.6,-0.3 c -3.2,-0.6 -32.3,-6.3 -68.3,-6.3 -15.3,0 -29.9,1.1 -43.2,3.1 -8.7,1.2 -39.2,5.9 -64.3,13.2 -12.1,3.5 -43.3,14 -78.3,36.5 -76,-17.5 -153.2,-23.4 -201.3,-25.3 45.7,-61.4 68.3,-132.7 60.8,-193.9 -14.2,-114.9 -92.1,-182.8 -120,-203.6 -48.6,-201.1 -188.2,-286.6 -304.2,-299.8 -22.8,-26.5 -66.5,-42.8 -115.3,-42.8 -19.7,0 -39.2,2.6 -57.9,7.8 -61.7,17.1 -110.5,64.2 -120.1,115.3 -61.9,51.2 -157.8,166.1 -131.3,373 -23.3,31.5 -68,111.5 -37.5,232 21,82.9 72.4,142.6 149.2,173.8 -60,28.8 -112.4,63.9 -156.1,104.4 -2.6,2.5 -5.3,4.9 -7.8,7.4 -103.7,5.6 -197.8,48.6 -272.6,124.6 -79,80.4 -119,177.3 -138.7,244.4 l -0.7,2.5 h 1716.5 0.2 c 11.4,-1.8 34.4,-8.2 56.3,-16.9 29.4,-11.7 51.5,-24.9 67.4,-40.5 35.1,-4.7 62,-13.9 80,-20 0,0 5.3,-1.8 7.1,-2.4 31,-10.1 101.9,-47.4 128.1,-98.9 52.9,-20.3 92,-47.1 116.4,-79.7 46,-7.9 81.7,-28.1 101.1,-39.1 45.9,-26 78.2,-51.5 98.8,-78 16.9,-21.8 27.3,-38.5 35.2,-56.8 15.7,-8.2 33.3,-18.9 56.4,-34.4 80.3,-53.9 97.4,-151.9 99.1,-163.1 0.4,-2.4 0.7,-4.7 1,-7.1 4.1,0.3 8.1,0.4 12.2,0.4 80.8,0 186.1,-50.7 242.9,-78 l 0.9,-0.4 c 8.8,-4.2 16.3,-7.9 20.1,-9.4 19,-7.9 57.7,-28.8 97.8,-55.8 50.9,-34.2 86,-66.1 104.3,-94.8 3,-4.7 5.3,-9.7 7,-14.9 l 33.1,-20.5 c 9.6,-5.9 17.6,-14.9 22.8,-25.5 9,-5 16.7,-9.6 19.1,-11.1 26.1,-16.6 37.2,-45.8 27.6,-74.7"
         clip-path="url(#SVGID_6_)"
         inkscape:connector-curvature="0" />
      <path
         id="path7936"
         d="M 882.5,1553.9 H 682 c 25.5,-78.9 67,-150.2 118.2,-202.2 51.1,-52 110.5,-85.1 177.3,-98.8 -24.1,32.7 -43.8,67.9 -59.1,105.5 -35.1,86.5 -37.1,162.3 -35.9,195.5"
         clip-path="url(#SVGID_6_)"
         inkscape:connector-curvature="0"
         style="fill:#ffffff" />
      <path
         id="path7938"
         d="m 969.2,1378.9 c 24.1,-59.3 60.9,-112.3 109.4,-157.3 43.2,-40.2 96,-74.2 157.4,-101.6 6,-2.1 19.5,-5.9 37,-4.7 27.2,1.8 75.9,12.8 103.1,7.9 6,-1 12.8,-8.4 -2.1,-13.1 -4.4,-1.4 -42.5,-17.3 -37.5,-36.2 0,-0.2 0.2,-0.8 0.2,-0.8 1.4,-5.1 8.3,-11.1 18.2,-11.9 43,-4.1 68,-8.9 79.7,-10.5 7,-1 12.5,-2.5 13.7,-6 1,-2.9 -1,-4.3 -8.7,-3.9 -72.3,4.3 -165.6,-11.3 -206.4,-23.1 -68.3,-21.6 -111.7,-67.5 -129.2,-136.8 -20.4,-80.5 0.5,-144.3 27.4,-179.2 13.7,-16.7 36.9,-37.9 44,-43.6 18.4,-14.7 5.8,-11.4 -14.4,-8.8 -14.6,1.9 -18.7,-4.5 -19.7,-10.4 -0.8,-5.2 -1.6,-22.1 -2.2,-30.3 -1.9,-61.7 8.9,-117.3 32.4,-165.9 25.2,-52.3 60.8,-87.2 87.8,-108.1 11.3,-8.2 27.9,-19.8 39.8,-26.1 18.8,-9.9 8.3,-16.5 -15.4,-11.4 0,0 -7.4,2 -5.4,-4.4 0.4,-1 0.7,-2.1 1.2,-3.1 1.7,-3.8 3.9,-7.3 6.2,-10.7 13.2,-17.1 35.7,-33.7 62.4,-41 50.1,-13.9 98,0.4 108.7,16.1 1,2.5 0.8,4.9 -2.8,6.3 -8.9,3.5 -15,9.8 -0.4,11.7 3.4,0.5 17.7,0 38.7,2.1 0.9,0.2 1.8,0.3 2.8,0.4 90,9.4 198.7,74.3 244.6,227 1.5,5.1 2.8,10.3 4.2,15.4 1.4,5.4 2.5,11.3 3.7,16.8 -10.8,2.4 -14.4,9.6 -3.8,13.2 6.9,2.4 14.9,7.2 21.2,11.5 0,0 0.1,0 0.1,0.1 0.1,0.1 0.3,0.2 0.5,0.3 1.1,0.8 2.2,1.6 3.3,2.4 2,1.5 6.1,4.6 9.8,7.5 38.9,31.8 78,85.2 86.4,153.7 7.2,58.4 -25,122.5 -63.3,166.1 -15,16.3 -41.6,41.2 -87.6,69.5 -10.3,6.3 -0.9,14.2 50.4,-4.2 4.6,-1 11.6,-4.2 15.9,0.1 4.9,4.9 6.1,27 -11.9,47.8 -17.9,20.7 8.3,13.5 39.2,-13.3 6,-5.2 10.1,-10.9 13,-16.8 26.8,0 109.7,1.3 196.3,16.9 -18,19.1 -33.2,40.5 -45.3,63.9 -38.6,74.7 -49.8,153.9 -33.2,235.5 10.2,50.2 41.3,122.3 81,163 27.3,28 68.6,70.3 147.3,92.6 23.9,6.8 50.2,10.2 78.3,10.3 v 0 H 937.3 c -1.2,-25.9 -0.5,-95.1 31.9,-174.9"
         clip-path="url(#SVGID_6_)"
         inkscape:connector-curvature="0"
         style="fill:#ffffff" />
      <path
         id="path7940"
         d="m 2321.7,1490.6 c -7.3,1.2 -37.7,8.3 -75.3,8.3 -20.3,0 -42.7,-2.1 -64.6,-8.3 -62.5,-17.7 -94.4,-48.8 -122.9,-78.1 -28.6,-29.3 -57.1,-89.3 -66.5,-135.6 -9.4,-46.3 -14.2,-117.4 28.2,-199.3 42.4,-81.9 121.1,-112 144.6,-118.8 23.5,-6.9 55.7,-11.3 55.7,-11.3 2.6,-0.4 5.2,-0.7 7.8,-1 -24.5,19.7 -46.1,43.6 -63.3,70.3 -25,38.7 -40.5,82.8 -44.7,127.5 -4.2,44.5 0.8,90.8 14.7,134 13.8,43.3 36.2,82.6 64.6,113.6 27.2,29.7 60.7,54.5 96.9,71.6 17.5,8.3 35.4,14.7 53.4,19.2 -13.5,4.5 -24.5,7.2 -28.6,7.9"
         clip-path="url(#SVGID_6_)"
         inkscape:connector-curvature="0"
         style="fill:#ffffff" />
      <path
         id="path7942"
         d="m 2522.8,1413.1 c -21.5,7.1 -59.4,22.2 -111.9,22.2 -1.6,0 -3.2,0 -4.8,0 -55,-1 -119.1,-29.4 -165.8,-80.5 -46.8,-51.1 -72.3,-129.2 -65.1,-205.4 7.2,-76.2 53,-139.8 108.5,-175 12.8,-8.1 26.2,-14.3 39.3,-18.9 5.6,-2 11.1,-3.8 16.4,-5.4 -1,1.4 -2,2.8 -3,4.3 -56.8,84.2 -52.8,191.3 -25.1,255.1 14.4,33.2 31,61 50.8,84.8 26.1,31.6 57.6,55.7 93.4,71.7 33.1,14.8 68.1,22.2 103.9,22.2 3.8,0 7.6,-0.1 11.4,-0.3 -16.8,11.6 -34.9,20.9 -48,25.2"
         clip-path="url(#SVGID_6_)"
         inkscape:connector-curvature="0"
         style="fill:#ffffff" />
      <path
         id="path7944"
         d="m 2636.1,1319.6 c -21.3,7.4 -47.4,13.7 -76.5,13.7 -25.3,0 -52.9,-4.7 -81.6,-17.5 -61.7,-27.5 -95.4,-80.5 -116.2,-128.2 -20.7,-47.7 -25.5,-134.5 20.2,-202.5 24.8,-36.8 60.7,-58.8 88.5,-71.4 -18.3,53.4 -26.6,136.4 32,235.1 l 0.4,0.7 0.4,0.7 c 29.6,46.7 68.1,82.8 114.4,107.2 27.4,14.4 57,24.2 87,29 -21.3,14.8 -46.6,25.5 -68.6,33.2"
         clip-path="url(#SVGID_6_)"
         inkscape:connector-curvature="0"
         style="fill:#ffffff" />
      <path
         id="path7946"
         d="m 2856.8,1200.5 c -24.9,14.1 -59.7,32.9 -103.8,34.2 -2,0.1 -4,0.1 -6,0.1 -65.7,0 -145,-31.5 -197.2,-114 -92.2,-155.5 8.7,-262.1 41.6,-287.6 20.1,-15.6 39.7,-31.8 55.2,-40.5 -7.3,20.5 -10.1,36.4 -11,41.7 -6.8,39.2 -0.7,89.4 16.5,134.5 22.6,59.5 62.5,107.5 115.4,138.7 42.9,25.3 87.2,38.2 131.7,38.2 12.2,0 23.6,-1 33.9,-2.6 -20.8,24.2 -55.1,45.3 -76.3,57.3"
         clip-path="url(#SVGID_6_)"
         inkscape:connector-curvature="0"
         style="fill:#ffffff" />
      <path
         id="path7948"
         d="m 3710.3,560.6 c -5.4,3.4 -12.5,7.5 -19.2,11.1 -0.2,-0.3 -0.3,-0.7 -0.5,-1 -9.5,-15.9 -22,-25.7 -37.3,-29.3 -23.9,-5.6 -54,4 -94.5,30.2 -59,38 -150,59.5 -150.9,59.7 -6.3,1.5 -10.2,7.8 -8.7,14.1 1.3,5.4 6.1,9.1 11.4,9.1 0.9,0 1.8,-0.1 2.7,-0.3 3.9,-0.9 95.8,-22.6 158.2,-62.8 33.9,-21.9 59.6,-31 76.5,-27 8.1,1.9 14.6,6.8 20.4,15.2 0,0 0,0 0,0 7.7,11.8 0.5,17.3 -0.1,17.7 -0.5,0.3 -29.7,18.3 -41.6,25.7 -6,-6.5 -18.5,-17.2 -37.7,-18.8 -21,-1.8 -42.7,7.8 -64.6,28.4 -53.1,50.1 -111,66.4 -112,66.7 -6.2,1.7 -9.9,8.1 -8.2,14.3 1.4,5.2 6.1,8.7 11.3,8.7 1,0 2,-0.1 3.1,-0.4 2.6,-0.7 64.2,-17.8 122,-72.3 16.6,-15.7 32.7,-23.3 46.6,-22.1 13.5,1.2 21.6,10.2 23.7,12.9 0.5,0.8 3,4.9 0.3,9.1 -32.6,51.2 -145.4,116.4 -177.6,129.9 -24.4,10.3 -120.1,61.9 -199.1,78.5 -8.5,2.2 -17.3,3.5 -26.2,4.2 -0.9,0.1 -1.8,0.1 -2.7,0.2 -11.5,0.4 -64.6,1.4 -80.4,-14.6 -22.8,-23.1 -31.1,-6.6 -24.1,23.3 -25,15.2 -62.5,38 -72.4,44.1 -25.9,15.8 -59.8,-1.9 -65.6,-1.9 -14,-0.3 19.1,41.3 46.2,45.2 29.4,4.2 84.2,-30.6 84.2,-30.6 l 20.8,-13.6 c 0,0 0,0.1 0,0.1 0,0 -12.2,79.8 -71.4,119.4 -36.6,24.6 -52,32.1 -66,38.4 -8.9,4.1 -37.1,18.5 -77.9,18.5 -28.9,0 -64.3,-7.2 -103.7,-30.5 -95.5,-56.4 -114.5,-167.1 -105.6,-217 0,0 10.6,-73.3 67.1,-116.7 37.7,-28.9 60.1,-41.4 60.1,-41.4 0,0 35.1,-23.3 88.1,-23.3 22.7,0 48.8,4.3 76.7,16.5 -8.3,5.9 -15.5,12.2 -19.5,18.2 -10.9,16.3 -25.8,53.9 -15.5,53.7 7.5,-0.1 12.5,-18.4 37.8,-31.6 12.4,-6.5 71.5,-41.1 71.5,-41.1 0,0 2.6,-9.1 5.1,-14.6 0,0 7,-15.7 22.4,-37.6 1,-1.5 3.1,-4.5 6.5,-9 8.8,-11.8 19.8,-24.8 33.2,-38 0,0 0,0 0,0 16.1,-16.9 38,-38.1 67.2,-63.5 0,0 163.6,-106.1 171.1,-109.8 1.4,-0.7 2.9,-1 4.5,-1 14.1,0 33.8,24.5 9.2,56.9 -20,26.4 -42.9,43.8 -61.2,57.9 -5.1,3.8 -12.5,8.8 -17.6,10.6 -24.7,8.9 -57.7,28.2 -62.6,32 -5.7,4.4 -5.3,11.4 1.4,8.4 21.5,-9.3 56.5,-18.3 62.9,-19.9 37.2,-8.2 310.5,-73.9 315.5,-75 1.3,-0.3 3.7,-0.6 6.8,-0.6 9.4,0 24.6,3.4 29.5,23.1 0.2,0.7 0.3,1.3 0.4,1.9 L 3400,574 c -6.2,1.9 -9.7,8.4 -7.8,14.6 1.4,4.3 4.9,7.3 9,8.1 1.8,0.4 3.8,0.3 5.6,-0.3 L 3630,530 c 4.5,-1 13,-3.2 28.8,-8.6 l 2.5,-0.8 c 4.8,-1.4 9.4,-2.1 13.6,-2.1 22.9,0 36.4,18.6 40.5,30.7 1.7,5.1 -0.3,8.5 -5.1,11.4"
         clip-path="url(#SVGID_6_)"
         inkscape:connector-curvature="0"
         style="fill:#ffffff" />
      <path
         id="path7950"
         d="m 1567.1,496.8 c -0.1,15.2 2.3,31.3 6.1,45.9 4.6,14.8 10.1,29.4 19.3,42 7.8,10.8 17.1,21.4 30.1,25.6 -0.1,0 -0.2,0 -0.2,0 0,0 0.3,0.1 1.2,0.4 0.8,0.2 1.1,0.3 1.1,0.3 0,0 0,0 -0.1,0 3.1,0.8 6.2,1.1 9.3,1.1 5.1,0 10.3,-0.9 16.5,-2.2 6.3,-1.4 12.9,-2.7 18.6,-5.8 7,-3.8 11,-13 13.6,-20.1 3,-8.1 4.5,-16.6 5,-25.2 0.9,-15.2 -1.5,-30.1 -6,-44.6 0.1,0.6 0.3,1.2 0.4,1.9 8.5,38.3 -3.1,73.5 -25.7,78.6 -22.8,5.2 -48,-21.6 -56.4,-59.9 -2.3,-10.3 -3.1,-20.4 -2.7,-29.7 4.7,6.8 12,10.4 18.8,8.5 9.5,-2.5 14.4,-14.5 11.2,-26.6 -2.8,-10.7 -11.1,-17.9 -19.4,-17.8 4.7,-6.8 10.7,-11.4 17.8,-13 14.7,-3.4 30.5,6.7 42.1,24.6 -2.9,-5.3 -6.1,-10.4 -9.8,-15.3 -8.9,-11.9 -20.8,-23.3 -35.8,-26.4 -2.5,-0.5 -5.1,-0.8 -7.7,-0.8 -13.2,0 -26.7,6.4 -35,16.3 -9.5,11.5 -12.2,27.6 -12.3,42.2 m -8.6,46.5 c -4.5,-16.4 -10.1,-42 -8.7,-66.3 1.9,-35 19.8,-54.7 41.2,-61.4 26.4,-8.3 54.3,4.8 70.2,25.2 8.9,11.4 18.3,27.8 25.1,44.7 2.6,5.7 5,11.7 7.2,18.2 6.7,19.4 9.6,38.1 8.6,55.8 -0.6,10.6 -2.6,20.5 -5.9,29.4 -3.6,9.8 -9.2,21.8 -20.3,27.8 -7.4,4 -15.2,5.6 -22.1,7.1 l -0.3,0.1 c -6.1,1.3 -12.7,2.5 -19.5,2.5 -4.2,0 -8.2,-0.4 -12.2,-1.4 -0.6,-0.1 -1.2,-0.3 -1.9,-0.5 v 0 c -0.1,0 -0.2,0 -0.3,-0.1 v 0 c -0.3,-0.1 -0.6,-0.2 -0.8,-0.3 l -0.2,-0.1 -0.3,-0.1 c -17.4,-5.6 -28.7,-18.8 -37.4,-30.9 -7.6,-10.5 -12.7,-21.7 -16.7,-32.4 l -0.1,-0.2 c 0,0 -0.9,-2.3 -2.2,-6.4 -0.8,-2.5 -1.6,-4.9 -2.3,-7.3 l -0.1,-0.3 -0.1,-0.3 c -0.4,-0.7 -0.6,-1.8 -0.9,-2.8 m 65.2,67.3 c 0.3,0.1 0.7,0.2 1,0.3 -0.3,-0.1 -1.6,-0.5 -2,-0.6 0.4,0.1 0.7,0.2 1,0.3 m -259.1,10.6 c 9.4,17.8 21.2,31.4 33.2,38.5 5.9,3.5 12.4,5.2 19.6,5.2 6,0 12.7,-1.1 20.6,-3.4 l 0.4,-0.1 c 3.4,-0.9 13.6,-3.8 19.1,-6.2 10.1,-4.3 18.6,-18.6 22.6,-38.2 1.5,-7.2 2.2,-14.8 2.4,-22.4 -2.6,23.9 -14.1,42.5 -31.5,46.5 -25.3,6 -53.5,-21.1 -62.9,-60.4 -2.5,-10.6 -3.4,-21 -2.9,-30.7 4.9,5.9 11.9,8.9 18.4,7 9.6,-2.6 14.6,-14.7 11.2,-26.7 -2.8,-9.7 -10.1,-16.5 -17.9,-17.5 5.2,-7.3 12.1,-12.3 20.2,-14.2 18.5,-4.4 38.4,8.9 51.6,31.6 -0.5,-1.2 -1,-2.4 -1.5,-3.5 -12.7,-25.3 -34.7,-51.5 -76.6,-40.3 -55.1,14.8 -42.6,86.9 -36.6,109.2 2.9,9 6.3,17.5 10.6,25.6 m -14.1,7.5 c -9.2,-17.3 -14.6,-35.5 -17.4,-54.9 -2.7,-18.8 -3.8,-38.4 -0.4,-57.2 3.3,-18.4 11.7,-35.5 26.8,-46.5 12.4,-9.1 28.7,-14.6 44.5,-14.6 4.2,0 8.4,0.4 12.4,1.2 39.8,8.2 58.4,40.7 74.2,86.5 17.3,50.2 5.3,112.8 -26.8,126.6 -7.9,3.4 -21.3,6.9 -21.3,6.9 -8.4,2.4 -16.7,4 -25,4 -9.4,0 -18.7,-2.1 -27.7,-7.4 -16.9,-9.8 -30.1,-27.4 -39.3,-44.6 m 319.7,121.6 c -50.3,27.1 -107.5,42 -163.9,49.7 15.3,7.2 31,12.9 48,14.2 15.4,1.2 30.7,-1.2 45.4,-5.7 15,-4.6 29.4,-11.4 41.5,-21.5 12.2,-10 21.2,-22.9 29,-36.7 m 75.4,-48.6 c -3.2,0.6 -4.5,-3.5 -6.3,-8.3 -9.9,12.8 -30.3,32.8 -33.1,36.3 -4.6,6 -8.4,12.6 -12,19.3 -6.1,11.1 -12,22.3 -19.4,32.6 -10,14 -22.7,25.9 -37.4,34.8 -28,16.9 -63.3,24.9 -95.7,19.6 -17.1,-2.8 -33.3,-9.2 -48.8,-16.7 -12.6,-6.1 -25.8,-14.1 -40.1,-14.8 -15.8,0.5 -32,0.7 -47.7,-1.2 -5.4,-0.6 -10.1,-2.7 -11.9,-8.4 -2.4,-7.5 2.8,-15.2 10.6,-15.7 v 0 c 2.6,0 5.1,0.5 7.7,0.7 5.1,0.3 10.1,0.7 15.2,0.8 57,1.8 114.7,-7.3 169.1,-24 33.4,-10.3 65.9,-24.4 94.6,-44.5 11.8,-8.3 23.1,-17.5 32.8,-28.3 1.4,-1.6 2.8,-3.7 4.4,-5.5 -1.1,-0.6 -2.1,-1.2 -2.9,-1.5 -2.8,-1 -3.2,-6.4 2.3,-7.8 5.5,-1.5 12.9,1.4 15.5,4.3 2.6,2.9 5.6,7.8 6.4,13.7 0.9,6.2 0.3,13.9 -3.3,14.6 m -343.4,67.5 c -14.7,10.1 -18.3,18 -20.4,22.8 -2.1,4.8 -1.8,10 -1.1,12.5 0.7,2.5 -0.1,5 -2.4,6 v 0 h -0.1 c -0.1,0.1 -0.2,0.1 -0.3,0.1 -2.3,0.9 -4.2,0.5 -5.2,-0.1 -1.3,-0.6 -2.3,-1.7 -2.8,-3.1 -4.2,-9.6 0.1,-29.9 10.9,-39.6 3.9,-3.7 9.7,-7.8 14.4,-9.7 1.8,-0.8 7.3,-2.9 10,1.1 2.7,4.2 -0.5,8.2 -3,10"
         clip-path="url(#SVGID_6_)"
         inkscape:connector-curvature="0" />
    </g>
    <polygon
       id="polygon7954"
       points="4426.5,1585.8 4465.7,1479.5 464.3,1479.5 425.2,1585.8 "
       style="fill:#27509b" />
    <g
       id="g7964">
      <defs
         id="defs7957">
        <rect
           height="2267.7"
           width="8291.2998"
           y="-256.70001"
           id="rect8013"
           x="0" />
      </defs>
      <clipPath
         id="SVGID_8_">
        <use
           id="use7959"
           overflow="visible"
           xlink:href="#SVGID_7_"
           style="overflow:visible"
           x="0"
           y="0"
           width="100%"
           height="100%" />
      </clipPath>
      <path
         id="path7962"
         d="m 7625,1516.9 c -13.4,37.4 -31.9,50 -68.9,50 h -39.3 l 37.8,-104.1 h 39.2 c 32.4,0 43,21 31.2,54.1 m -29.7,-72.8 h -58.8 l -51.6,141.7 h 70.5 c 50.8,0 77.3,-20.7 93.5,-65.2 14.9,-40.7 -0.2,-76.5 -53.6,-76.5 m -142,51 c -6.5,18.9 -19.3,23 -51.2,23 h -33.8 l 20.3,-55.5 h 31.3 c 35.2,0 41.7,9 33.4,32.5 m -27.5,-51 h -55.5 l -51.6,141.7 h 25 l 17.9,-49.2 h 43.9 l 17.7,49.2 h 25.6 l -20.5,-52.4 c 22.2,-2.2 40.5,-11.2 49.2,-35 12,-32.5 -1.5,-54.3 -51.7,-54.3 m -217.2,87.8 55.9,-75.4 4.1,75.4 z m 51.2,-87.8 c -7.3,0 -12.2,2.4 -17,9.1 L 7142,1585.8 h 27 l 26,-35.2 h 75 l 2,35.2 h 23.8 l -9.4,-141.7 z m -94.6,0 -82.5,124.8 3,-124.8 h -35 l -82.1,125.6 1.4,-125.6 h -24.4 v 141.7 h 24.2 c 5.9,0 11.8,-2 15.9,-9.1 l 76.4,-114.8 -2,123.8 h 26.8 c 5.5,0 11,-2.4 15.5,-9.1 l 89.8,-132.7 h -27 z m -279.1,51 c -6.5,18.9 -19.3,23 -51.2,23 H 6801 l 20.3,-55.5 h 31.3 c 35.3,0 41.7,9 33.5,32.5 m -27.6,-51 H 6803 l -51.6,141.7 h 25 l 17.9,-49.2 h 43.9 l 17.7,49.2 h 25.6 l -20.5,-52.4 c 22.2,-2.2 40.6,-11.2 49.2,-35 12.1,-32.5 -1.5,-54.3 -51.7,-54.3 m -141.9,73.2 c -14.4,39.2 -34.8,51.8 -67.5,51.8 -40.4,0 -51,-21 -38,-56.7 14.2,-39 34.6,-51.6 67.1,-51.6 40.5,0 51.1,21.1 38.4,56.5 m -36.5,-75.6 c -48.4,0 -76.4,21.7 -93.1,67.5 -15.8,42.3 -2.4,78.9 60.4,78.9 48.2,0 76.1,-21.7 93.1,-67.5 15.6,-42.3 2.2,-78.9 -60.4,-78.9 m -185.4,21.1 h 92.7 l 6.9,-18.7 h -117.7 l -51.6,141.7 h 25 l 19.5,-53.7 h 83.8 l 6.9,-18.9 h -83.8 z m -206.2,44.3 -29.7,-63 h -24.4 l 37.4,80.1 -22.4,61.6 h 25 l 21.8,-59.8 98.2,-81.9 h -29.9 z m -169.1,24.8 55.9,-75.4 4.1,75.4 z m 51.2,-87.8 c -7.3,0 -12.2,2.4 -16.9,9.1 l -100.9,132.7 h 27 l 26,-35.2 h 75 l 2,35.2 h 23.8 l -9.4,-141.7 h -26.6 z m -94.6,0 -82.5,124.8 3,-124.8 h -35 l -82.1,125.6 1.4,-125.6 h -24.4 v 141.7 h 24.2 c 5.9,0 11.8,-2 15.9,-9.1 l 76.4,-114.8 -2,123.8 h 26.8 c 5.5,0 11,-2.4 15.6,-9.1 l 89.7,-132.7 h -27 z m -340.8,51 c -6.5,18.9 -19.3,23 -51.2,23 h -33.8 l 20.3,-55.5 h 31.3 c 35.2,0 41.7,9 33.4,32.5 m -27.5,-51 h -55.5 l -51.5,141.7 h 25 l 17.9,-49.2 h 43.9 l 17.7,49.2 h 25.6 l -20.4,-52.4 c 22.2,-2.2 40.5,-11.2 49.2,-35 11.8,-32.5 -1.8,-54.3 -51.9,-54.3 m -188.7,18.5 h 92.5 l 6.9,-18.5 h -117.7 l -51.6,141.7 h 117.7 l 6.7,-18.5 h -92.7 l 15.7,-43.1 h 83 l 6.9,-18.5 h -83.2 z m -46.5,-18.5 h -136.4 l -7.1,19.1 h 56 l -44.6,122.6 h 25 l 44.7,-122.6 h 55.3 z m -304.7,19.1 h 56.1 l -44.7,122.6 h 25 l 44.7,-122.6 h 55.3 l 7.1,-19.1 h -136.4 z m -184.7,122.6 h 117.7 l 6.7,-18.5 h -92.7 l 15.7,-43.1 h 83 l 6.9,-18.5 h -83.2 l 15.8,-43.1 h 92.5 l 6.9,-18.5 h -117.7 z m -33.5,-100 c -5.5,16.3 -21,20.3 -46.4,20.3 h -40.3 l 15.9,-43.5 h 45.3 c 23.7,0 31.6,6.3 25.5,23.2 m -14.2,64 c -4.9,13.4 -15.5,17.5 -41.1,17.5 h -53.7 l 15.9,-43.9 h 48.6 c 26.4,0 36.4,9 30.3,26.4 m -1.8,-105.7 h -73.2 l -51.6,141.7 h 91.7 c 27.1,0 49,-7.1 57.8,-30.3 6.9,-18.7 0,-34.8 -19.5,-40.1 17.3,-3.7 29.7,-12.6 35.4,-28 9.2,-25 -3.4,-43.3 -40.6,-43.3 m -293.9,87.8 55.9,-75.4 4.1,75.4 z m 51.2,-87.8 c -7.3,0 -12.2,2.4 -16.9,9.1 l -101,132.7 h 27 l 26,-35.2 h 75 l 2,35.2 h 23.8 l -9.4,-141.7 h -26.5 z"
         clip-path="url(#SVGID_8_)"
         inkscape:connector-curvature="0"
         style="fill:#004f9f" />
    </g>
  </g>
</svg>
