<svg width="193" height="193" viewBox="0 0 193 193" fill="none" xmlns="http://www.w3.org/2000/svg">
<circle cx="96.5" cy="96.5" r="96.5" fill="black"/>
<path fill-rule="evenodd" clip-rule="evenodd" d="M73.3211 43.1837C71.5021 43.8427 68.3971 45.9467 66.4231 47.8577C54.7131 59.1927 52.7871 83.4707 62.0841 102.568C67.1651 113.007 72.6581 118.985 80.8931 123.039C86.7731 125.934 88.4761 126.31 95.4331 126.252C103.244 126.187 103.292 126.202 100.97 128.011C95.1651 132.532 87.7201 135.173 79.5031 135.625C69.5931 136.17 65.6261 134.982 60.9481 130.068C57.1591 126.088 55.1681 121.474 55.0651 116.435C55.0021 113.354 54.9951 113.35 53.9961 115.834C52.6811 119.104 52.6641 129.614 53.9691 132.973C55.7901 137.66 60.9851 142.597 65.8361 144.25C82.3191 149.867 104.514 139.229 117.17 119.648C122.708 111.079 124.619 104.797 124.567 95.3337C124.52 86.7147 122.919 82.3047 117.5 75.8637L114.777 72.6277L121.078 75.8087C128.387 79.4977 135.974 86.6697 139.207 92.9447C144.089 102.422 141.553 113.755 133.294 119.367C129.163 122.174 130.018 122.49 136.018 120.373C153.317 114.269 156.105 95.5787 141.901 80.9247C131.823 70.5277 120.552 65.7637 104.379 65.0667C94.5241 64.6417 92.2321 64.8697 85.8791 66.9067C76.7881 69.8197 69.5571 76.4647 66.3301 84.8687L64.2321 90.3337L64.1801 81.8997C64.1161 71.4437 66.1691 63.8257 70.7571 57.5047C76.7151 49.2957 85.8741 46.7947 95.1281 50.8487L99.6281 52.8207L94.9261 48.4577C88.3911 42.3957 80.6881 40.5147 73.3211 43.1837Z" fill="white"/>
</svg>
