<svg width="320" height="320" viewBox="0 0 320 320" fill="none" xmlns="http://www.w3.org/2000/svg">
<g clip-path="url(#clip0_1313_214)">
<mask id="mask0_1313_214" style="mask-type:luminance" maskUnits="userSpaceOnUse" x="0" y="0" width="320" height="320">
<path d="M320 0H0V320H320V0Z" fill="white"/>
</mask>
<g mask="url(#mask0_1313_214)">
<path fill-rule="evenodd" clip-rule="evenodd" d="M0 0H320V320H0V0Z" fill="url(#paint0_linear_1313_214)"/>
<path fill-rule="evenodd" clip-rule="evenodd" d="M0 0H320V320H0V0Z" fill="url(#paint1_linear_1313_214)"/>
<g filter="url(#filter0_ii_1313_214)">
<path d="M210.657 224.64C209.932 224.64 209.204 224.625 208.476 224.595C198.195 240.204 180.766 249.701 161.865 249.701V235.466C177.135 235.466 191.097 227.161 198.406 213.735L200.734 209.459L205.563 210.078C207.253 210.295 208.966 210.405 210.657 210.405C232.546 210.405 250.365 192.585 250.365 170.696C250.365 158.958 244.919 147.46 235.815 139.978L233.008 137.671L233.23 134.044C233.276 133.292 233.299 132.527 233.299 131.769C233.299 110.763 216.198 93.6619 195.192 93.6619C187.625 93.6619 180.337 95.8708 174.049 100.067L168.75 103.605L164.65 98.7275C157.371 90.069 146.776 85.1307 135.47 85.1307C114.464 85.1307 97.3636 102.232 97.3636 123.238C97.3636 123.824 97.3775 124.418 97.405 125.005L97.6315 129.84L93.2184 131.828C78.8718 138.29 69.6346 152.569 69.6346 168.297C69.6346 190.333 87.5731 208.272 109.608 208.272C111.951 208.272 114.299 208.068 116.591 207.664L121.935 206.723L124.258 211.628C131.122 226.125 145.853 235.466 161.865 235.466V249.701C142.103 249.701 123.841 239.144 113.853 222.342C112.441 222.452 111.024 222.507 109.608 222.507C79.7111 222.507 55.3994 198.195 55.3994 168.297C55.3994 148.542 66.1401 130.48 83.1773 120.96C84.3732 93.1453 107.365 70.8955 135.47 70.8955C148.942 70.8955 161.715 76.0237 171.381 85.1533C178.727 81.3921 186.849 79.4268 195.192 79.4268C223.916 79.4268 247.301 102.668 247.533 131.338C258.297 141.475 264.6 155.884 264.6 170.696C264.6 200.447 240.408 224.64 210.657 224.64ZM188.904 178.517C184.07 180.367 179.311 181.303 174.732 181.303C170.139 181.303 165.607 180.361 161.276 178.509C161.101 178.436 161.101 178.436 160.927 178.362C159.331 177.675 158.647 176.848 158.647 175.034V172.61C158.647 170.479 159.875 169.108 161.875 169.108L162.324 169.169L162.443 169.215C166.405 170.777 170.536 171.569 174.725 171.569C178.931 171.569 183.334 170.772 187.812 169.196L188.214 169.108H188.327C190.328 169.108 191.556 170.479 191.556 172.61V175.034C191.556 176.962 190.894 177.662 189.044 178.457L188.904 178.517ZM129.554 155.284L142.639 151.849L129.523 148.406C128.163 148.05 127.182 146.977 127.182 145.099V140.974C127.182 139.171 128.264 138.395 129.502 138.395C129.903 138.395 130.317 138.482 130.732 138.638L154.085 146.193C155.859 146.784 156.835 148.209 156.835 150.161V153.536C156.835 155.488 155.86 156.913 154.084 157.505L130.681 165.076C130.286 165.192 129.933 165.25 129.59 165.25C128.124 165.25 127.182 164.196 127.182 162.661V158.598C127.182 156.645 128.195 155.569 129.554 155.284Z" fill="black"/>
<path d="M210.657 224.64C209.932 224.64 209.204 224.625 208.476 224.595C198.195 240.204 180.766 249.701 161.865 249.701V235.466C177.135 235.466 191.097 227.161 198.406 213.735L200.734 209.459L205.563 210.078C207.253 210.295 208.966 210.405 210.657 210.405C232.546 210.405 250.365 192.585 250.365 170.696C250.365 158.958 244.919 147.46 235.815 139.978L233.008 137.671L233.23 134.044C233.276 133.292 233.299 132.527 233.299 131.769C233.299 110.763 216.198 93.6619 195.192 93.6619C187.625 93.6619 180.337 95.8708 174.049 100.067L168.75 103.605L164.65 98.7275C157.371 90.069 146.776 85.1307 135.47 85.1307C114.464 85.1307 97.3636 102.232 97.3636 123.238C97.3636 123.824 97.3775 124.418 97.405 125.005L97.6315 129.84L93.2184 131.828C78.8718 138.29 69.6346 152.569 69.6346 168.297C69.6346 190.333 87.5731 208.272 109.608 208.272C111.951 208.272 114.299 208.068 116.591 207.664L121.935 206.723L124.258 211.628C131.122 226.125 145.853 235.466 161.865 235.466V249.701C142.103 249.701 123.841 239.144 113.853 222.342C112.441 222.452 111.024 222.507 109.608 222.507C79.7111 222.507 55.3994 198.195 55.3994 168.297C55.3994 148.542 66.1401 130.48 83.1773 120.96C84.3732 93.1453 107.365 70.8955 135.47 70.8955C148.942 70.8955 161.715 76.0237 171.381 85.1533C178.727 81.3921 186.849 79.4268 195.192 79.4268C223.916 79.4268 247.301 102.668 247.533 131.338C258.297 141.475 264.6 155.884 264.6 170.696C264.6 200.447 240.408 224.64 210.657 224.64ZM188.904 178.517C184.07 180.367 179.311 181.303 174.732 181.303C170.139 181.303 165.607 180.361 161.276 178.509C161.101 178.436 161.101 178.436 160.927 178.362C159.331 177.675 158.647 176.848 158.647 175.034V172.61C158.647 170.479 159.875 169.108 161.875 169.108L162.324 169.169L162.443 169.215C166.405 170.777 170.536 171.569 174.725 171.569C178.931 171.569 183.334 170.772 187.812 169.196L188.214 169.108H188.327C190.328 169.108 191.556 170.479 191.556 172.61V175.034C191.556 176.962 190.894 177.662 189.044 178.457L188.904 178.517ZM129.554 155.284L142.639 151.849L129.523 148.406C128.163 148.05 127.182 146.977 127.182 145.099V140.974C127.182 139.171 128.264 138.395 129.502 138.395C129.903 138.395 130.317 138.482 130.732 138.638L154.085 146.193C155.859 146.784 156.835 148.209 156.835 150.161V153.536C156.835 155.488 155.86 156.913 154.084 157.505L130.681 165.076C130.286 165.192 129.933 165.25 129.59 165.25C128.124 165.25 127.182 164.196 127.182 162.661V158.598C127.182 156.645 128.195 155.569 129.554 155.284Z" fill="url(#paint2_linear_1313_214)"/>
</g>
</g>
</g>
<defs>
<filter id="filter0_ii_1313_214" x="55.3994" y="67.8955" width="209.201" height="181.806" filterUnits="userSpaceOnUse" color-interpolation-filters="sRGB">
<feFlood flood-opacity="0" result="BackgroundImageFix"/>
<feBlend mode="normal" in="SourceGraphic" in2="BackgroundImageFix" result="shape"/>
<feColorMatrix in="SourceAlpha" type="matrix" values="0 0 0 0 0 0 0 0 0 0 0 0 0 0 0 0 0 0 127 0" result="hardAlpha"/>
<feOffset dy="-3"/>
<feGaussianBlur stdDeviation="1.5"/>
<feComposite in2="hardAlpha" operator="arithmetic" k2="-1" k3="1"/>
<feColorMatrix type="matrix" values="0 0 0 0 0 0 0 0 0 0 0 0 0 0 0 0 0 0 0.05 0"/>
<feBlend mode="normal" in2="shape" result="effect1_innerShadow_1313_214"/>
<feColorMatrix in="SourceAlpha" type="matrix" values="0 0 0 0 0 0 0 0 0 0 0 0 0 0 0 0 0 0 127 0" result="hardAlpha"/>
<feOffset/>
<feGaussianBlur stdDeviation="2"/>
<feComposite in2="hardAlpha" operator="arithmetic" k2="-1" k3="1"/>
<feColorMatrix type="matrix" values="0 0 0 0 1 0 0 0 0 1 0 0 0 0 1 0 0 0 0.2 0"/>
<feBlend mode="normal" in2="effect1_innerShadow_1313_214" result="effect2_innerShadow_1313_214"/>
</filter>
<linearGradient id="paint0_linear_1313_214" x1="9921.28" y1="1325.12" x2="22874.9" y2="30335" gradientUnits="userSpaceOnUse">
<stop stop-color="#2E3973"/>
<stop offset="1" stop-color="#141729"/>
</linearGradient>
<linearGradient id="paint1_linear_1313_214" x1="160" y1="0" x2="160" y2="320" gradientUnits="userSpaceOnUse">
<stop stop-color="#1C265B"/>
<stop offset="1" stop-color="#060816"/>
</linearGradient>
<linearGradient id="paint2_linear_1313_214" x1="160" y1="70.8955" x2="160" y2="249.701" gradientUnits="userSpaceOnUse">
<stop stop-color="#FDFDFF"/>
<stop offset="1" stop-color="#C0CDD8"/>
</linearGradient>
<clipPath id="clip0_1313_214">
<rect width="320" height="320" rx="160" fill="white"/>
</clipPath>
</defs>
</svg>
